<svg id="Capa_1" enable-background="new 0 0 512 512" height="512" viewBox="0 0 512 512" width="512" xmlns="http://www.w3.org/2000/svg"><g><path d="m471.369 115.987h-149.093c-13.663 0-25.763 6.785-33.132 17.155-7.37-10.37-19.47-17.155-33.132-17.155h-82.563l-85.507-85.507c-.001-.001-.002-.002-.003-.003s-.002-.002-.004-.003l-23.424-23.424c-4.545-4.546-10.589-7.05-17.017-7.05s-12.472 2.504-17.017 7.049l-23.427 23.428c-4.546 4.545-7.05 10.588-7.05 17.016 0 6.429 2.504 12.473 7.049 17.018l23.423 23.424c.001.001.002.003.004.004.001.001.003.002.004.004l44.101 44.101c-5.327 7.015-8.292 15.633-8.292 24.575v134.095c0 4.143 3.358 7.5 7.5 7.5s7.5-3.357 7.5-7.5v-134.096c0-4.942 1.437-9.728 4.052-13.816l73.694 73.695c.178.178.364.345.557.503 1.143.931 2.55 1.509 4.014 1.657.243.024.488.036.732.036h43.748l9.518 9.518c1.464 1.464 3.384 2.196 5.303 2.196.178 0 16.54-.025 16.54-.025 4.142 0 7.5-3.357 7.5-7.5s-3.358-7.5-7.5-7.5h-13.458l-7.295-7.295v-43.746c0-.246-.012-.491-.036-.736-.148-1.464-.725-2.873-1.658-4.014-.158-.193-.325-.378-.503-.556l-28.047-28.047h67.563c14.133 0 25.631 11.498 25.632 25.63v283.254c-6.997-5.705-15.921-9.134-25.632-9.134h-174.724v-110.025c0-4.143-3.358-7.5-7.5-7.5s-7.5 3.357-7.5 7.5v150.655c0 22.404 18.228 40.632 40.632 40.632h292.324c4.143 0 7.5-3.357 7.5-7.5s-3.357-7.5-7.5-7.5h-102.6l.001-18.132h141.592c4.143 0 7.5-3.357 7.5-7.5s-3.357-7.5-7.5-7.5h-140.47c3.215-10.485 12.985-18.131 24.509-18.131h174.723v25.631c0 14.134-11.498 25.632-25.631 25.632h-42.124c-4.143 0-7.5 3.357-7.5 7.5s3.357 7.5 7.5 7.5h42.124c22.404 0 40.631-18.227 40.631-40.632v-314.75c0-22.404-18.227-40.631-40.631-40.631zm-453.714-62.084c-1.712-1.712-2.655-3.988-2.655-6.41 0-2.421.943-4.697 2.656-6.409l23.428-23.429c1.711-1.712 3.988-2.655 6.41-2.655 2.421 0 4.698.943 6.411 2.656l18.123 18.124-18.119 18.119c-.002.002-.003.003-.005.005s-.003.003-.005.005l-18.119 18.119zm146.683 146.684-117.951-117.952 12.821-12.821 117.951 117.952zm39.355 3.106h-21.248l21.248-21.248zm-3.106-39.355-12.821 12.821-117.951-117.952 12.821-12.82 82.393 82.392.021.021zm81.058 332.662h-174.724c-14.133 0-25.632-11.498-25.632-25.632v-25.631h174.724c11.524 0 21.294 7.646 24.509 18.131h-140.47c-4.142 0-7.5 3.357-7.5 7.5s3.358 7.5 7.5 7.5h141.592v18.132zm215.355-66.263h-174.724c-9.711 0-18.634 3.429-25.632 9.134l.001-283.254c0-14.133 11.498-25.63 25.631-25.63h149.093c14.133 0 25.631 11.498 25.631 25.631z"/><path d="m371.974 180.685h49.697c4.143 0 7.5-3.357 7.5-7.5s-3.357-7.5-7.5-7.5h-49.697c-4.143 0-7.5 3.357-7.5 7.5 0 4.142 3.357 7.5 7.5 7.5z"/><path d="m454.803 215.382h-115.961c-4.143 0-7.5 3.357-7.5 7.5s3.357 7.5 7.5 7.5h115.961c4.143 0 7.5-3.357 7.5-7.5s-3.358-7.5-7.5-7.5z"/><path d="m454.803 248.513h-115.961c-4.143 0-7.5 3.357-7.5 7.5s3.357 7.5 7.5 7.5h115.961c4.143 0 7.5-3.357 7.5-7.5s-3.358-7.5-7.5-7.5z"/><path d="m454.803 281.645h-115.961c-4.143 0-7.5 3.358-7.5 7.5 0 4.143 3.357 7.5 7.5 7.5h115.961c4.143 0 7.5-3.357 7.5-7.5s-3.358-7.5-7.5-7.5z"/><path d="m454.803 314.776h-115.961c-4.143 0-7.5 3.357-7.5 7.5s3.357 7.5 7.5 7.5h115.961c4.143 0 7.5-3.357 7.5-7.5 0-4.142-3.358-7.5-7.5-7.5z"/><path d="m454.803 347.908h-99.395c-4.143 0-7.5 3.357-7.5 7.5s3.357 7.5 7.5 7.5h99.395c4.143 0 7.5-3.357 7.5-7.5s-3.358-7.5-7.5-7.5z"/></g></svg>