<svg id="Capa_1" enable-background="new 0 0 512.279 512.279" height="512" viewBox="0 0 512.279 512.279" width="512" xmlns="http://www.w3.org/2000/svg"><g><path d="m463.678 71.542h-91.705v-30.101c0-4.142-3.357-7.5-7.5-7.5s-7.5 3.358-7.5 7.5v30.101h-31.067c-4.143 0-7.5 3.358-7.5 7.5s3.357 7.5 7.5 7.5h31.067v31.758h-5.629c-7.86 0-14.255 6.395-14.255 14.254v88.294c0 7.86 6.395 14.254 14.255 14.254h5.629v59.501c0 4.142 3.357 7.5 7.5 7.5s7.5-3.358 7.5-7.5v-59.501h5.629c7.859 0 14.254-6.395 14.254-14.254v-88.294c0-7.86-6.395-14.254-14.254-14.254h-5.629v-31.758h91.705c18.021 0 32.684 14.662 32.684 32.684v256.695h-480.445v-256.694c0-18.022 14.662-32.684 32.684-32.684h131.472v14.637h-5.629c-7.86 0-14.254 6.395-14.254 14.254v88.294c0 7.86 6.395 14.254 14.254 14.254h5.629v66.273c0 4.142 3.358 7.5 7.5 7.5s7.5-3.358 7.5-7.5v-66.273h5.629c7.86 0 14.254-6.395 14.254-14.254v-88.294c0-7.86-6.395-14.254-14.254-14.254h-5.629v-14.638h31.067c4.142 0 7.5-3.358 7.5-7.5s-3.358-7.5-7.5-7.5h-31.067v-3.704c0-4.142-3.358-7.5-7.5-7.5s-7.5 3.358-7.5 7.5v3.704h-131.472c-26.293 0-47.684 21.391-47.684 47.684v264.195c0 26.293 21.391 47.684 47.684 47.684h114.169v38.134l-24.173 28.04h-9.595c-4.142 0-7.5 3.358-7.5 7.5s3.358 7.5 7.5 7.5h253.583c4.143 0 7.5-3.358 7.5-7.5s-3.357-7.5-7.5-7.5h-8.904l-24.173-28.04v-38.134h114.17c26.293 0 47.684-21.391 47.684-47.684v-264.194c0-26.293-21.391-47.685-47.684-47.685zm-86.822 148.562h-24.766v-86.803h24.767v86.803zm-176.9-17.122h-24.767v-86.802h24.767zm263.722 213.123h-151.791c-4.143 0-7.5 3.358-7.5 7.5s3.357 7.5 7.5 7.5h22.621v33.421h-18.682c-4.143 0-7.5 3.358-7.5 7.5s3.357 7.5 7.5 7.5h22.745l15.305 17.753h-195.474l15.305-17.753h22.745c4.142 0 7.5-3.358 7.5-7.5s-3.358-7.5-7.5-7.5h-18.682v-33.421h102.154c4.143 0 7.5-3.358 7.5-7.5s-3.357-7.5-7.5-7.5h-231.323c-15.441 0-28.406-10.766-31.806-25.184h478.688c-3.399 14.418-16.364 25.184-31.805 25.184z"/><path d="m79.239 218.963c-4.142 0-7.5 3.358-7.5 7.5v18.106c0 7.86 6.394 14.254 14.254 14.254h5.629v39.941c0 4.142 3.358 7.5 7.5 7.5s7.5-3.358 7.5-7.5v-39.941h5.629c7.86 0 14.254-6.394 14.254-14.254v-88.294c0-7.86-6.395-14.255-14.254-14.255h-5.629v-11.996c0-4.142-3.358-7.5-7.5-7.5s-7.5 3.358-7.5 7.5v11.996h-5.629c-7.86 0-14.254 6.395-14.254 14.255v38.226c0 4.142 3.358 7.5 7.5 7.5s7.5-3.358 7.5-7.5v-37.48h12.374.01s.006 0 .01 0h12.374v86.803h-24.768v-17.36c0-4.143-3.358-7.501-7.5-7.501z"/><path d="m262.893 203.141h5.63v39.94c0 4.142 3.357 7.5 7.5 7.5s7.5-3.358 7.5-7.5v-39.94h5.629c7.859 0 14.254-6.395 14.254-14.255v-58.827c0-4.142-3.357-7.5-7.5-7.5s-7.5 3.358-7.5 7.5v58.082h-24.767v-135.803h24.767v45.759c0 4.142 3.357 7.5 7.5 7.5s7.5-3.358 7.5-7.5v-46.505c0-7.859-6.395-14.254-14.254-14.254h-5.629v-29.838c0-4.142-3.357-7.5-7.5-7.5s-7.5 3.358-7.5 7.5v29.838h-5.63c-7.86 0-14.254 6.395-14.254 14.254v137.294c0 7.861 6.394 14.255 14.254 14.255z"/><path d="m407.755 205.617c1.355 2.514 3.939 3.942 6.608 3.942 1.201 0 2.421-.29 3.553-.9l34.547-18.627-2.485 6.522c-1.475 3.871.468 8.204 4.339 9.679.879.334 1.781.493 2.669.493 3.021 0 5.87-1.84 7.01-4.832l8.444-22.166c1.475-3.871-.468-8.204-4.339-9.679l-23.527-8.963c-3.87-1.474-8.204.468-9.679 4.339s.468 8.204 4.339 9.679l5.455 2.078-33.892 18.274c-3.646 1.966-5.008 6.515-3.042 10.161z"/><path d="m45.263 352.16c1.218 2.846 3.987 4.551 6.898 4.551.984 0 1.985-.195 2.948-.607l96.778-41.419 8.795 23.043c.77 2.017 2.371 3.604 4.394 4.356 2.022.751 4.272.596 6.172-.429l159.884-86.205c3.646-1.966 5.008-6.515 3.042-10.161-1.965-3.645-6.513-5.008-10.161-3.042l-152.364 82.15-8.531-22.353c-.728-1.907-2.201-3.435-4.08-4.231-1.879-.797-4.001-.792-5.878.01l-103.953 44.49c-3.807 1.631-5.573 6.039-3.944 9.847z"/></g></svg>